# Blender v2.76 (sub 0) OBJ File: ''
# www.blender.org
mtllib untitled.mtl
o Cube
v 1.000000 -1.000000 -1.000000
v 1.000000 -1.000000 1.000000
v -1.000000 -1.000000 1.000000
v -1.000000 -1.000000 -1.000000
v 0.940245 1.464759 -0.499018
v 0.999999 1.000000 1.000001
v -1.000000 1.000000 1.000000
v -1.000000 1.000000 -1.000000
vt 0.665952 0.556115
vt 1.000000 0.556115
vt 1.000000 0.998233
vt 0.665952 0.998233
vt 0.072527 0.994531
vt 0.000000 0.553935
vt 0.331039 0.561794
vt 0.331039 1.000000
vt 0.659234 0.000000
vt 0.659234 0.556115
vt 0.398292 0.521212
vt 0.331904 0.087965
vt 0.331904 0.998233
vt 0.331904 0.556115
vt 0.993283 0.442118
vt 0.659235 0.442118
vt 0.993283 0.000000
vt 0.331904 0.000000
vt 0.331904 0.553935
vt 0.000000 0.547841
vt 0.000366 0.108520
vn 0.000000 -1.000000 0.000000
vn -0.132700 0.982200 0.132700
vn 0.999800 0.015100 -0.015100
vn -0.000000 -0.000000 1.000000
vn -1.000000 -0.000000 -0.000000
vn 0.112300 0.112300 -0.987300
usemtl Material
s off
f 1/1/1 2/2/1 3/3/1 4/4/1
f 5/5/2 8/6/2 7/7/2 6/8/2
f 1/9/3 5/10/3 6/11/3 2/12/3
f 2/13/4 6/14/4 7/1/4 3/4/4
f 3/15/5 7/16/5 8/9/5 4/17/5
f 5/18/6 1/19/6 4/20/6 8/21/6
