# Blender v2.76 (sub 0) OBJ File: 'Computer.blend'
# www.blender.org
mtllib Computer.mtl
o Computer_Cube.002
v -0.323639 0.077259 0.124656
v -0.377255 0.312810 0.124656
v -0.323639 0.077259 -0.126336
v -0.377255 0.312810 -0.126336
v 0.286148 0.079698 0.252907
v 0.173514 0.574536 0.252907
v 0.286148 0.079698 -0.254587
v 0.173514 0.574536 -0.254587
v 0.168006 0.620718 -0.300840
v 0.301171 0.035682 -0.300840
v 0.168006 0.620718 0.299160
v 0.301171 0.035682 0.299160
v 0.190799 0.581386 -0.257431
v 0.304695 0.081004 -0.257431
v 0.190799 0.581386 0.255751
v 0.304695 0.081004 0.255751
v -0.050292 0.464139 -0.200109
v -0.010193 0.551058 -0.271611
v 0.110378 0.021352 -0.271611
v 0.036610 0.082353 -0.200109
v -0.010193 0.551058 0.269931
v -0.050292 0.464139 0.198429
v 0.036610 0.082353 0.198429
v 0.110378 0.021352 0.269931
v -0.121447 -0.002619 -0.146003
v -0.041229 -0.002619 -0.121353
v -0.001392 -0.002619 -0.080999
v -0.121447 0.155458 0.000261
v 0.020167 -0.002619 0.028796
v -0.001392 -0.002619 0.081521
v -0.066192 -0.002619 0.135392
v -0.121447 -0.002619 0.146526
v -0.201664 -0.002619 0.121876
v -0.254844 -0.002619 0.056234
v -0.265835 -0.002619 0.000261
v -0.241501 -0.002619 -0.080999
v -0.201664 -0.002619 -0.121353
vt 0.200355 0.991529
vt 0.200355 0.820139
vt 0.351310 0.820139
vt 0.351310 0.991529
vt 0.884839 0.997660
vt 0.766005 1.000000
vt 0.766005 0.718112
vt 0.884839 0.742432
vt 0.000000 0.611080
vt 0.224257 0.608944
vt 0.231852 0.720384
vt 0.012310 0.791704
vt 0.351310 0.430388
vt 0.351310 0.800180
vt 0.231852 0.820139
vt 0.231852 0.410429
vt 0.012060 0.410429
vt 0.231852 0.482577
vt 0.373697 0.717390
vt 0.373697 0.370962
vt 0.689780 0.371685
vt 0.689780 0.718112
vt 0.027719 0.379767
vt 0.347344 0.380498
vt 0.373697 0.410429
vt 0.000000 0.409574
vt 0.027719 0.029457
vt 0.000000 0.000000
vt 0.347344 0.030188
vt 0.373697 0.000855
vt 0.988546 0.632495
vt 0.972877 0.398363
vt 0.984155 0.398520
vt 1.000000 0.635276
vt 0.362534 0.412371
vt 0.362534 0.758913
vt 0.351311 0.760855
vt 0.351310 0.410429
vt 0.859978 0.280920
vt 0.859978 0.519347
vt 0.848570 0.522429
vt 0.848570 0.281330
vt 0.988546 0.142877
vt 1.000000 0.140172
vt 0.712096 0.302053
vt 0.730652 0.000000
vt 0.848570 0.028213
vt 0.831822 0.300836
vt 0.712096 0.370962
vt 0.418377 0.319166
vt 0.667416 0.319166
vt 0.597666 0.768488
vt 0.597666 0.939878
vt 0.373697 0.990254
vt 0.373697 0.718112
vt 0.667416 0.051795
vt 0.418377 0.051796
vt 0.373697 0.000000
vt 0.712096 0.000000
vt 0.848570 0.551469
vt 0.730593 0.578864
vt 0.602414 0.960452
vt 0.597666 0.718113
vt 0.706275 0.960452
vt 0.718197 0.604892
vt 0.783195 0.718112
vt 0.689780 0.622910
vt 0.899582 0.263304
vt 0.972877 0.140172
vt 0.945337 0.280920
vt 0.945669 0.140172
vt 0.973502 0.000000
vt 0.973502 0.136271
vt 0.899590 0.122369
vt 0.783195 0.579468
vt 0.850218 0.003919
vt 0.848570 0.049540
vt 0.848570 0.190158
vt 0.862277 0.223054
vt 0.849901 0.144074
vt 0.972877 0.276761
vt 0.862192 0.082220
vt 0.174630 0.856376
vt 0.174630 0.913329
vt 0.157848 0.947286
vt 0.096259 0.983414
vt 0.060828 0.980085
vt 0.016782 0.948969
vt 0.000000 0.915413
vt 0.000000 0.858460
vt 0.029431 0.810754
vt 0.060828 0.792336
vt 0.113802 0.791704
vt 0.145200 0.809373
vn -0.975100 -0.221900 0.000000
vn -0.148900 -0.033900 -0.988300
vn -0.199800 -0.045500 0.978800
vn 0.074900 -0.997200 0.000000
vn -0.420000 0.907500 0.000000
vn 0.975100 0.221900 0.000000
vn 0.931100 0.211900 -0.296900
vn 0.865200 0.501400 0.000000
vn 0.931100 0.211900 0.296900
vn 0.997000 -0.077500 0.000000
vn 0.149100 0.033900 0.988200
vn 0.368400 -0.929600 0.000000
vn 0.149100 0.033900 -0.988200
vn -0.070200 0.997500 0.000000
vn -0.364100 0.931400 0.000000
vn -0.908000 0.418900 0.000000
vn 0.014100 -0.999900 0.000000
vn -0.637300 -0.770600 0.000000
vn -0.148900 -0.033900 0.988300
vn -0.755200 -0.171900 0.632500
vn -0.199800 -0.045500 -0.978800
vn -0.755200 -0.171900 -0.632500
vn 0.688800 0.667900 0.281700
vn 0.220000 0.662500 -0.716000
vn -0.730700 0.667400 0.143500
vn -0.583700 0.660000 0.472900
vn 0.749800 0.645100 -0.147200
vn 0.479700 0.661000 0.577000
vn -0.528500 0.669600 -0.521800
vn -0.720900 0.658500 -0.215900
vn 0.528500 0.669600 -0.521800
vn -0.220000 0.662500 -0.716000
vn 0.146300 0.671800 0.726100
vn -0.220000 0.662500 0.716000
vn 0.000000 -1.000000 0.000000
usemtl None
s off
f 2/1/1 4/2/1 3/3/1 1/4/1
f 18/5/2 9/6/2 10/7/2 19/8/2
f 22/9/3 2/10/3 1/11/3 23/12/3
f 24/13/4 19/14/4 10/15/4 12/16/4
f 22/9/5 17/17/5 4/18/5 2/10/5
f 5/19/6 7/20/6 8/21/6 6/22/6
f 13/23/7 14/24/7 10/25/7 9/26/7
f 15/27/8 13/23/8 9/26/8 11/28/8
f 16/29/9 15/27/9 11/28/9 12/30/9
f 14/24/10 16/29/10 12/30/10 10/25/10
f 8/31/11 7/32/11 14/33/11 13/34/11
f 6/35/12 8/36/12 13/37/12 15/38/12
f 5/39/13 6/40/13 15/41/13 16/42/13
f 7/32/14 5/43/14 16/44/14 14/33/14
f 11/45/15 9/46/15 18/47/15 21/48/15
f 21/49/16 18/20/16 17/50/16 22/51/16
f 1/52/17 3/53/17 20/54/17 23/55/17
f 23/56/18 20/57/18 19/58/18 24/59/18
f 11/45/19 21/48/19 24/60/19 12/61/19
f 21/49/20 22/51/20 23/56/20 24/59/20
f 4/62/21 17/63/21 20/7/21 3/64/21
f 17/50/22 18/20/22 19/58/22 20/57/22
f 29/65/23 28/66/23 30/67/23
f 25/68/24 28/69/24 26/70/24
f 34/71/25 28/72/25 35/73/25
f 28/72/26 34/71/26 33/74/26
f 28/66/27 29/65/27 27/75/27
f 30/76/28 28/72/28 31/77/28
f 36/78/29 28/69/29 37/79/29
f 28/69/30 36/78/30 35/80/30
f 26/70/31 28/69/31 27/81/31
f 28/69/32 25/68/32 37/79/32
f 31/77/33 28/72/33 32/82/33
f 28/72/34 33/74/34 32/82/34
f 25/83/35 26/84/35 27/85/35 29/86/35 30/87/35 31/88/35 32/89/35 33/90/35 34/91/35 35/92/35 36/93/35 37/94/35
